<mxfile host="app.diagrams.net" modified="2023-04-13T00:56:32.477Z" agent="Mozilla/5.0 (Windows NT 10.0; Win64; x64) AppleWebKit/537.36 (KHTML, like Gecko) Chrome/111.0.0.0 Safari/537.36" etag="8ly70A9YkD1Nf_OOzZge" version="21.1.4" type="device">
  <diagram name="Page-1" id="LXB2ieRQ93B-QSHsnFzo">
    <mxGraphModel dx="1050" dy="515" grid="1" gridSize="10" guides="1" tooltips="1" connect="1" arrows="1" fold="1" page="1" pageScale="1" pageWidth="850" pageHeight="1100" math="0" shadow="0">
      <root>
        <mxCell id="0" />
        <mxCell id="1" parent="0" />
        <mxCell id="vdL6EGho0_gbeWmIKJu9-8" style="edgeStyle=orthogonalEdgeStyle;rounded=0;orthogonalLoop=1;jettySize=auto;html=1;entryX=0.5;entryY=0;entryDx=0;entryDy=0;" parent="1" source="vdL6EGho0_gbeWmIKJu9-1" target="vdL6EGho0_gbeWmIKJu9-7" edge="1">
          <mxGeometry relative="1" as="geometry" />
        </mxCell>
        <mxCell id="vdL6EGho0_gbeWmIKJu9-1" value="" style="whiteSpace=wrap;html=1;aspect=fixed;" parent="1" vertex="1">
          <mxGeometry x="390" y="140" width="110" height="110" as="geometry" />
        </mxCell>
        <mxCell id="vdL6EGho0_gbeWmIKJu9-2" value="" style="endArrow=none;html=1;rounded=0;exitX=0.25;exitY=1;exitDx=0;exitDy=0;entryX=0.25;entryY=0;entryDx=0;entryDy=0;" parent="1" source="vdL6EGho0_gbeWmIKJu9-1" target="vdL6EGho0_gbeWmIKJu9-1" edge="1">
          <mxGeometry width="50" height="50" relative="1" as="geometry">
            <mxPoint x="400" y="320" as="sourcePoint" />
            <mxPoint x="450" y="270" as="targetPoint" />
            <Array as="points">
              <mxPoint x="418" y="210" />
            </Array>
          </mxGeometry>
        </mxCell>
        <mxCell id="vdL6EGho0_gbeWmIKJu9-3" value="Test" style="text;html=1;strokeColor=none;fillColor=none;align=center;verticalAlign=middle;whiteSpace=wrap;rounded=0;" parent="1" vertex="1">
          <mxGeometry x="370" y="165" width="60" height="30" as="geometry" />
        </mxCell>
        <mxCell id="vdL6EGho0_gbeWmIKJu9-5" value="Train" style="text;html=1;strokeColor=none;fillColor=none;align=center;verticalAlign=middle;whiteSpace=wrap;rounded=0;" parent="1" vertex="1">
          <mxGeometry x="450" y="165" width="60" height="30" as="geometry" />
        </mxCell>
        <mxCell id="vdL6EGho0_gbeWmIKJu9-6" style="edgeStyle=orthogonalEdgeStyle;rounded=0;orthogonalLoop=1;jettySize=auto;html=1;exitX=0.5;exitY=1;exitDx=0;exitDy=0;" parent="1" source="vdL6EGho0_gbeWmIKJu9-1" target="vdL6EGho0_gbeWmIKJu9-1" edge="1">
          <mxGeometry relative="1" as="geometry" />
        </mxCell>
        <mxCell id="vdL6EGho0_gbeWmIKJu9-10" value="" style="edgeStyle=orthogonalEdgeStyle;rounded=0;orthogonalLoop=1;jettySize=auto;html=1;entryX=1;entryY=0.5;entryDx=0;entryDy=0;" parent="1" source="vdL6EGho0_gbeWmIKJu9-7" target="vdL6EGho0_gbeWmIKJu9-11" edge="1">
          <mxGeometry relative="1" as="geometry">
            <mxPoint x="460" y="340" as="targetPoint" />
            <Array as="points">
              <mxPoint x="460" y="370" />
            </Array>
          </mxGeometry>
        </mxCell>
        <mxCell id="vdL6EGho0_gbeWmIKJu9-7" value="Calculate logits, loss, for each test and train sample using target model" style="rounded=1;whiteSpace=wrap;html=1;" parent="1" vertex="1">
          <mxGeometry x="385" y="340" width="120" height="60" as="geometry" />
        </mxCell>
        <mxCell id="vdL6EGho0_gbeWmIKJu9-24" style="edgeStyle=orthogonalEdgeStyle;rounded=0;orthogonalLoop=1;jettySize=auto;html=1;entryX=0.5;entryY=0;entryDx=0;entryDy=0;" parent="1" source="vdL6EGho0_gbeWmIKJu9-11" target="vdL6EGho0_gbeWmIKJu9-23" edge="1">
          <mxGeometry relative="1" as="geometry" />
        </mxCell>
        <mxCell id="vdL6EGho0_gbeWmIKJu9-11" value="" style="whiteSpace=wrap;html=1;aspect=fixed;" parent="1" vertex="1">
          <mxGeometry x="110" y="290" width="160" height="160" as="geometry" />
        </mxCell>
        <mxCell id="vdL6EGho0_gbeWmIKJu9-14" value="" style="endArrow=none;html=1;rounded=0;exitX=0.25;exitY=0;exitDx=0;exitDy=0;entryX=0.25;entryY=1;entryDx=0;entryDy=0;" parent="1" source="vdL6EGho0_gbeWmIKJu9-11" target="vdL6EGho0_gbeWmIKJu9-11" edge="1">
          <mxGeometry width="50" height="50" relative="1" as="geometry">
            <mxPoint x="155" y="340" as="sourcePoint" />
            <mxPoint x="450" y="240" as="targetPoint" />
          </mxGeometry>
        </mxCell>
        <mxCell id="vdL6EGho0_gbeWmIKJu9-17" value="Test" style="text;html=1;strokeColor=none;fillColor=none;align=center;verticalAlign=middle;whiteSpace=wrap;rounded=0;" parent="1" vertex="1">
          <mxGeometry x="110" y="300" width="60" height="30" as="geometry" />
        </mxCell>
        <mxCell id="vdL6EGho0_gbeWmIKJu9-18" value="Train" style="text;html=1;strokeColor=none;fillColor=none;align=center;verticalAlign=middle;whiteSpace=wrap;rounded=0;" parent="1" vertex="1">
          <mxGeometry x="220" y="300" width="60" height="30" as="geometry" />
        </mxCell>
        <mxCell id="vdL6EGho0_gbeWmIKJu9-22" value="Loss logits and corresponding labels - belonging to test or train" style="text;html=1;strokeColor=none;fillColor=none;align=center;verticalAlign=middle;whiteSpace=wrap;rounded=0;" parent="1" vertex="1">
          <mxGeometry x="140" y="340" width="60" height="90" as="geometry" />
        </mxCell>
        <mxCell id="vdL6EGho0_gbeWmIKJu9-29" style="edgeStyle=orthogonalEdgeStyle;rounded=0;orthogonalLoop=1;jettySize=auto;html=1;entryX=0;entryY=0.5;entryDx=0;entryDy=0;" parent="1" source="vdL6EGho0_gbeWmIKJu9-23" target="vdL6EGho0_gbeWmIKJu9-25" edge="1">
          <mxGeometry relative="1" as="geometry" />
        </mxCell>
        <mxCell id="vdL6EGho0_gbeWmIKJu9-23" value="Select equal number&amp;nbsp; samples from train and test each" style="rounded=1;whiteSpace=wrap;html=1;" parent="1" vertex="1">
          <mxGeometry x="130" y="490" width="120" height="60" as="geometry" />
        </mxCell>
        <mxCell id="vdL6EGho0_gbeWmIKJu9-25" value="" style="whiteSpace=wrap;html=1;aspect=fixed;" parent="1" vertex="1">
          <mxGeometry x="390" y="475" width="90" height="90" as="geometry" />
        </mxCell>
        <mxCell id="vdL6EGho0_gbeWmIKJu9-28" value="" style="endArrow=none;html=1;rounded=0;entryX=0.5;entryY=0;entryDx=0;entryDy=0;" parent="1" source="vdL6EGho0_gbeWmIKJu9-32" target="vdL6EGho0_gbeWmIKJu9-25" edge="1">
          <mxGeometry width="50" height="50" relative="1" as="geometry">
            <mxPoint x="435" y="610" as="sourcePoint" />
            <mxPoint x="450" y="480" as="targetPoint" />
          </mxGeometry>
        </mxCell>
        <mxCell id="vdL6EGho0_gbeWmIKJu9-30" value="Test" style="text;html=1;strokeColor=none;fillColor=none;align=center;verticalAlign=middle;whiteSpace=wrap;rounded=0;" parent="1" vertex="1">
          <mxGeometry x="380" y="475" width="60" height="30" as="geometry" />
        </mxCell>
        <mxCell id="vdL6EGho0_gbeWmIKJu9-31" value="Train" style="text;html=1;strokeColor=none;fillColor=none;align=center;verticalAlign=middle;whiteSpace=wrap;rounded=0;" parent="1" vertex="1">
          <mxGeometry x="425" y="475" width="60" height="30" as="geometry" />
        </mxCell>
        <mxCell id="vdL6EGho0_gbeWmIKJu9-33" value="" style="endArrow=none;html=1;rounded=0;entryX=0.5;entryY=0;entryDx=0;entryDy=0;exitX=0.5;exitY=1;exitDx=0;exitDy=0;" parent="1" target="vdL6EGho0_gbeWmIKJu9-32" edge="1" source="vdL6EGho0_gbeWmIKJu9-25">
          <mxGeometry width="50" height="50" relative="1" as="geometry">
            <mxPoint x="440" y="550" as="sourcePoint" />
            <mxPoint x="435" y="520" as="targetPoint" />
          </mxGeometry>
        </mxCell>
        <mxCell id="vdL6EGho0_gbeWmIKJu9-36" style="edgeStyle=orthogonalEdgeStyle;rounded=0;orthogonalLoop=1;jettySize=auto;html=1;entryX=0;entryY=0.5;entryDx=0;entryDy=0;" parent="1" source="vdL6EGho0_gbeWmIKJu9-32" target="vdL6EGho0_gbeWmIKJu9-35" edge="1">
          <mxGeometry relative="1" as="geometry" />
        </mxCell>
        <mxCell id="vdL6EGho0_gbeWmIKJu9-32" value="Attack model dataset" style="text;html=1;strokeColor=none;fillColor=none;align=center;verticalAlign=middle;whiteSpace=wrap;rounded=0;" parent="1" vertex="1">
          <mxGeometry x="405" y="505" width="60" height="30" as="geometry" />
        </mxCell>
        <mxCell id="vdL6EGho0_gbeWmIKJu9-35" value="Further test train split is done for attack model training" style="rounded=1;whiteSpace=wrap;html=1;" parent="1" vertex="1">
          <mxGeometry x="520" y="490" width="120" height="60" as="geometry" />
        </mxCell>
      </root>
    </mxGraphModel>
  </diagram>
</mxfile>
